# xmcd
#
# Track frame offsets:
#	150
#	11975
#	24297
#	40225
#	51814
#	63697
#	74737
#	85404
#	98130
#	112522
#	122310
#	132485
#	145315
#	155377
#
# Disc length: 2309 seconds
#
# Revision: 6
# Processed by: cddbd v1.5.2PL0 Copyright (c) Steve Scherf et al.
# Submitted via: audiograbber 1.80.04
#
DISCID=be09030e
DTITLE=Vários Artistas - 30 Anos de Jovem Guarda 2 - Eu Sou Terrível
DYEAR=1995
DGENRE=Rock Nacional
TTITLE0=Lilian and Ed Wilson - Devolva-Me
TTITLE1=Eduardo Araújo - O Bom
TTITLE2=The Fevers - Eu Te Darei O Céu
TTITLE3=Ronnie Von - Meu Bem (Girl)
TTITLE4=Os Vips - Faça Alguma Coisa Pelo Nosso Amor
TTITLE5=Erasmo Carlos - Minha Fama de Mau
TTITLE6=Renato E Seus Blue Caps - Meu Primeiro Amor (You're Going To Lose That 
TTITLE6=Girl)
TTITLE7=Wanderléa - Eu Sou Terrível
TTITLE8=Deny and Dino - Coruja
TTITLE9=Cleide Alves - Estúpido Cupido (Stupid Cupid)
TTITLE10=Trio Esperança - A Festa Do Bolinha
TTITLE11=Leno - A Pobreza (Paixão Proibida)
TTITLE12=Ed Wilson - Biquíni De Bolinha Amarelinha Tão Pequeninhinho ( Itsy Bit
TTITLE12=sy Teenie Weenie Yellow Polkadot Bikini)
TTITLE13=Vanusa - Quando
EXTD=
EXTT0=
EXTT1=
EXTT2=
EXTT3=
EXTT4=
EXTT5=
EXTT6=
EXTT7=
EXTT8=
EXTT9=
EXTT10=
EXTT11=
EXTT12=
EXTT13=
PLAYORDER=
